<svg xmlns="http://www.w3.org/2000/svg" viewBox="0 0 40 40">
  <defs>
    <linearGradient id="bg" x1="0" y1="0" x2="1" y2="1">
      <stop offset="0%" stop-color="#2f7350" />
      <stop offset="55%" stop-color="#164a33" />
      <stop offset="100%" stop-color="#0c2c1f" />
    </linearGradient>
  </defs>

  <rect x="1" y="1" width="38" height="38" rx="10" fill="url(#bg)" />

  <path
    d="M12 31 V20 C12 13 15.5 9 20 8 C24.5 9 28 13 28 20 V31"
    fill="none"
    stroke="#e5c265"
    stroke-width="1.8"
    stroke-linecap="round"
    stroke-linejoin="round"
  />

  <path
    d="M20 19 C16.5 16.8 13 17 10.5 18.6 V26.6 C13 25 16.5 24.8 20 27 C23.5 24.8 27 25 29.5 26.6 V18.6 C27 17 23.5 16.8 20 19 Z"
    fill="#f0da97"
  />
  <path d="M20 19 V27" stroke="#0c2c1f" stroke-width="1" stroke-opacity="0.35" stroke-linecap="round" />
  <g stroke="#0c2c1f" stroke-opacity="0.28" stroke-width="0.8" stroke-linecap="round">
    <line x1="13" y1="20.3" x2="17.3" y2="19.6" />
    <line x1="13" y1="23" x2="17.3" y2="22.5" />
    <line x1="13" y1="25.6" x2="17.3" y2="25.3" />
    <line x1="22.7" y1="19.6" x2="27" y2="20.3" />
    <line x1="22.7" y1="22.5" x2="27" y2="23" />
    <line x1="22.7" y1="25.3" x2="27" y2="25.6" />
  </g>

  <path
    d="M20 4.3 L20.8 5.9 L22.4 6.7 L20.8 7.5 L20 9.1 L19.2 7.5 L17.6 6.7 L19.2 5.9 Z"
    fill="#f8edcb"
  />
</svg>
